<mxfile host="app.diagrams.net" modified="2023-11-07T12:48:09.305Z" agent="Mozilla/5.0 (Macintosh; Intel Mac OS X 10_15_7) AppleWebKit/537.36 (KHTML, like Gecko) Chrome/119.0.0.0 Safari/537.36" version="22.0.8" etag="sp0Qqf09lDxsCayI0DLM" type="github">
  <diagram name="PÃ¡gina-1" id="9ib1uMYMOZtzV-gSuf1d">
    <mxGraphModel>
      <root>
        <mxCell id="0" />
        <mxCell id="1" parent="0" />
      </root>
    </mxGraphModel>
  </diagram>
</mxfile>
